<svg width="788" height="180" viewBox="0 0 788 180" fill="none" xmlns="http://www.w3.org/2000/svg">
<g clip-path="url(#clip0_5215_25559)">
<path d="M48.8548 49.2709C46.5719 49.2709 35.766 49.7285 26.6342 57.9658V6.25391H0V141.712H26.6342V133.322C34.5484 140.186 43.9846 142.017 48.7026 142.017C74.2715 142.017 92.6872 122.491 92.6872 95.6437C92.6872 68.7963 74.2715 49.1183 48.8548 49.1183V49.2709ZM47.0285 72.4573C58.7475 72.4573 66.2051 81.6098 66.2051 96.2539C66.2051 110.898 58.8997 120.051 47.0285 120.051C35.1572 120.051 26.6342 109.83 26.6342 96.2539C26.6342 82.6776 35.6138 72.4573 47.0285 72.4573Z" fill="#1A1E23"></path>
<path d="M325.85 83.8994L324.48 83.4418C317.479 81.0011 312 79.018 312 76.2723C312 72.1536 317.479 71.5435 320.676 71.5435C326.307 71.5435 330.112 74.5943 332.242 80.696L332.699 82.2214L354.615 73.8316L354.159 72.4587C349.288 56.1367 333.308 48.6621 320.523 48.6621C299.368 48.6621 285.214 59.6452 285.214 76.1197C285.214 94.4248 303.325 100.984 315.653 105.408L316.871 105.865C323.719 108.459 329.655 110.594 329.655 113.493C329.655 117.154 325.546 119.289 318.697 119.289C313.979 119.289 305.76 115.476 302.716 107.086L302.108 105.408L281.257 117.154L281.866 118.374C287.801 131.798 303.63 142.018 318.697 142.018C341.374 142.018 355.985 130.577 355.985 112.882C355.985 95.1875 337.721 88.1706 325.546 83.7468L325.85 83.8994Z" fill="#1A1E23"></path>
<path d="M413.06 49.2695C408.95 49.2695 398.753 51.4051 390.991 57.9644V49.4221H364.357V179.998H390.991V133.32C398.601 140.032 408.494 142.015 413.06 142.015C438.933 142.015 456.892 122.947 456.892 95.6424C456.892 68.3373 438.781 49.2695 413.06 49.2695ZM411.538 71.6933C423.257 71.6933 430.41 80.8458 430.41 95.6424C430.41 110.439 423.104 119.286 411.538 119.286C399.971 119.286 391.143 108.914 391.143 95.6424C391.143 82.3712 400.123 71.6933 411.538 71.6933Z" fill="#1A1E23"></path>
<path d="M525.229 57.968C519.141 52.7815 511.379 49.7307 503.313 49.7307C477.592 49.7307 459.633 68.6459 459.633 95.951C459.633 123.256 478.048 142.324 503.313 142.324C511.379 142.324 519.141 139.426 525.229 134.239V141.714H551.863V49.5781H525.229V57.968ZM505.139 119.595C493.42 119.595 486.267 110.443 486.267 95.951C486.267 81.4595 493.572 72.1544 505.139 72.1544C516.706 72.1544 525.229 82.3747 525.381 95.7985C525.229 109.375 516.554 119.595 505.139 119.595Z" fill="#1A1E23"></path>
<path d="M620.048 49.2696H599.045V17.6934H572.563V49.2696H555.213V72.6086H572.563V141.71H599.045V72.6086H620.048V49.2696Z" fill="#1A1E23"></path>
<path d="M663.725 74.7459C669.205 74.7459 675.749 77.9492 680.315 82.8306L681.38 84.0509L699.187 65.5933L698.274 64.5255C689.751 55.2204 676.662 49.4238 664.334 49.4238C636.939 49.4238 617.915 68.4916 617.915 95.7967C617.915 123.102 637.396 142.17 664.334 142.17C676.358 142.17 690.664 135.763 698.274 127.068L699.187 126L681.38 107.39L680.315 108.61C675.901 113.492 669.205 116.848 663.725 116.848C651.854 116.848 644.397 108.763 644.397 95.7967C644.397 82.8306 651.854 74.7459 663.725 74.7459Z" fill="#1A1E23"></path>
<path d="M746.977 48.0484C741.954 48.0484 734.801 50.1839 728.865 55.0653V6.4043H702.231V139.116H728.865V92.8958C728.865 80.2348 736.475 70.9297 746.977 70.9297C755.804 70.9297 760.979 78.7094 760.979 91.9806V139.116H787.765V89.0822C787.765 65.2856 770.567 48.0484 746.977 48.0484Z" fill="#1A1E23"></path>
<path d="M142.15 51.4043C117.342 51.4043 99.9922 69.4043 99.9922 95.0314C99.9922 120.659 117.647 138.659 142.15 138.659C166.654 138.659 184.309 120.353 184.309 95.0314C184.309 69.7094 166.958 51.4043 142.15 51.4043ZM142.15 117.15C131.497 117.15 125.104 108.913 125.104 95.0314C125.104 81.1501 131.649 72.9128 142.15 72.9128C152.652 72.9128 159.196 81.4551 159.196 95.0314C159.196 108.608 152.652 117.15 142.15 117.15Z" fill="#1A1E23"></path>
<path d="M234.532 51.4043C209.724 51.4043 192.374 69.4043 192.374 95.0314C192.374 120.659 210.028 138.659 234.532 138.659C259.035 138.659 276.69 120.353 276.69 95.0314C276.69 69.7094 259.34 51.4043 234.532 51.4043ZM234.532 117.15C223.878 117.15 217.486 108.913 217.486 95.0314C217.486 81.1501 224.03 72.9128 234.532 72.9128C245.033 72.9128 251.578 81.4551 251.578 95.0314C251.578 108.608 245.033 117.15 234.532 117.15Z" fill="#1A1E23"></path>
<path d="M165.895 81.3046C179.897 73.3724 196.943 73.3724 210.945 81.3046" stroke="#1A1E23" stroke-width="28.6185" stroke-miterlimit="10"></path>
<path d="M226.164 47.5932C228.904 47.1356 231.643 46.8305 234.535 46.8305C251.277 46.8305 264.67 54.1525 272.889 66.2034C275.324 64.9831 277.607 63.1525 278.976 60.5593C282.325 54.1525 279.889 46.2203 273.497 43.017L194.356 1.52542C192.529 0.61017 190.398 0 188.268 0C186.137 0 184.158 0.457627 182.18 1.52542L103.038 43.017C96.646 46.3729 94.2108 54.3051 97.5591 60.5593C98.9289 63.1525 101.212 65.1356 103.647 66.2034C111.713 54.1525 125.259 46.8305 142 46.8305C144.892 46.8305 147.632 47.1356 150.371 47.5932L188.116 27.7627L225.86 47.5932H226.164Z" fill="#06B281"></path>
</g>
<defs>
<clipPath id="clip0_5215_25559">
<rect width="787.765" height="180" fill="white"></rect>
</clipPath>
</defs>
</svg>