<svg width="400" height="400" viewBox="0 0 400 400" fill="none" xmlns="http://www.w3.org/2000/svg">
<path d="M74.7905 188C86.8706 170.769 106.952 160.462 131.583 160.462C135.976 160.462 140.212 160.769 144.134 161.385L199.828 133.385L255.365 161.385C259.444 160.769 263.523 160.462 267.916 160.462C292.547 160.462 312.629 171.077 324.709 188.154C328.474 186.462 331.769 183.692 333.808 179.846C338.672 170.923 335.22 159.692 325.65 154.923L208.927 96.1538C205.947 94.6154 203.123 94 199.985 94C196.847 94 193.71 94.9231 191.042 96.1538L74.3198 154.923C64.9067 159.538 61.2983 170.769 66.1618 179.846C68.2013 183.538 71.339 186.308 74.9473 188H74.7905Z" fill="#06B281"></path>
<path d="M268.098 167.391C246.892 167.391 229.299 176.291 218.303 190.656C206.208 187.845 193.485 187.845 181.39 190.656C170.394 176.134 152.801 167.234 131.595 167.234C94.9955 167.234 69.2344 193.622 69.2344 230.004C69.2344 266.385 95.3097 292.773 131.595 292.773C167.881 292.773 193.956 266.853 193.956 230.004C193.956 224.851 193.485 220.01 192.542 215.326C197.412 214.702 202.438 214.702 207.465 215.326C206.522 220.01 206.051 224.851 206.051 230.004C206.051 266.385 232.126 292.773 268.412 292.773C304.697 292.773 330.773 266.853 330.773 230.004C330.773 193.154 305.169 167.234 268.412 167.234L268.098 167.391ZM131.595 261.857C115.887 261.857 106.462 249.521 106.462 230.004C106.462 210.486 116.201 198.151 131.595 198.151C146.989 198.151 156.728 210.486 156.728 230.004C156.728 249.521 146.989 261.857 131.595 261.857ZM268.098 261.857C252.39 261.857 242.965 249.521 242.965 230.004C242.965 210.486 252.704 198.151 268.098 198.151C283.492 198.151 293.231 210.486 293.231 230.004C293.231 249.521 283.492 261.857 268.098 261.857Z" fill="white"></path>
</svg>